# xmcd
#
# Track frame offsets:
# 150
# 15987
# 26401
# 41006
# 61170
# 75725
# 85790
# 94873
# 112258
# 122919
# 144306
# 160136
# 169591
# 186357
# 197760
# 212934
# 224495
# 238687
# 251725
# 264636
# 273947
# 283358
# 298810
#
# Disc length: 4137 seconds
#
#
# Revision: 0
# Processed by: cddbd v1.5.2PL0 Copyright (c) Steve Scherf et al.
# Submitted via: Nero 7, 11, 10, 0 
#
DISCID=5e102717
DTITLE=Billy Flynn and The Flynn Tones - Big Guitar
DYEAR=2000
DGENRE=Blues
TTITLE0=Big Guitar
TTITLE1=Ram Rod 99
TTITLE2=Hot Rod
TTITLE3=Night In Gilly
TTITLE4=Re-Percussions
TTITLE5=Pretend
TTITLE6=Summer Serenade
TTITLE7=Wild As The Sea
TTITLE8=The Cruel Sea
TTITLE9=Marooned
TTITLE10=Hey Buddy, Pull Over
TTITLE11=Surfin' The Web
TTITLE12=Drive Inn
TTITLE13=Experiment In Terror
TTITLE14=Autumn Leaves
TTITLE15=My Own True Love - Tara's Theme
TTITLE16=Gear Head
TTITLE17=Scientwist
TTITLE18=Chunky
TTITLE19=Vaquero
TTITLE20=Diamond Head
TTITLE21=Autumn Haze
TTITLE22=Wreck Tangle
EXTD=
EXTT0=Big Guitar
EXTT1=Ram Rod 99
EXTT2=Hot Rod
EXTT3=Night In Gilly
EXTT4=Re-Percussions
EXTT5=Pretend
EXTT6=Summer Serenade
EXTT7=Wild As The Sea
EXTT8=The Cruel Sea
EXTT9=Marooned
EXTT10=Hey Buddy, Pull Over
EXTT11=Surfin' The Web
EXTT12=Drive Inn
EXTT13=Experiment In Terror
EXTT14=Autumn Leaves
EXTT15=My Own True Love - Tara's Theme
EXTT16=Gear Head
EXTT17=Scientwist
EXTT18=Chunky
EXTT19=Vaquero
EXTT20=Diamond Head
EXTT21=Autumn Haze
EXTT22=Wreck Tangle
PLAYORDER=
